HIERARCHY
ROOT Hips
{
	OFFSET -0.179506 -22.333345 2.821913
	CHANNELS 6 Xposition Yposition Zposition Zrotation Yrotation Xrotation 
	JOINT LeftUpLeg
	{
		OFFSET 6.951974 -9.140623 -0.681533
		CHANNELS 3 Zrotation Yrotation Xrotation
		JOINT LeftLeg
		{
			OFFSET 3.427654 -37.519855 -0.449580
			CHANNELS 3 Zrotation Yrotation Xrotation
			JOINT LeftFoot
			{
				OFFSET -1.359570 -39.796059 -4.369333
				CHANNELS 3 Zrotation Yrotation Xrotation
				JOINT LeftToe
				{
					OFFSET 2.635814 -5.579078 11.928840
					CHANNELS 3 Zrotation Yrotation Xrotation
					End Site
					{
						OFFSET 0.000000 0.000000 0.000000
					}
				}
			}
		}
	}
	JOINT RightUpLeg
	{
		OFFSET -6.767048 -9.052170 -0.431982
		CHANNELS 3 Zrotation Yrotation Xrotation
		JOINT RightLeg
		{
			OFFSET -3.829005 -38.256897 -0.885003
			CHANNELS 3 Zrotation Yrotation Xrotation
			JOINT RightFoot
			{
				OFFSET 1.577377 -39.841461 -4.231180
				CHANNELS 3 Zrotation Yrotation Xrotation
				JOINT RightToe
				{
					OFFSET -2.537174 -4.814398 12.334795
					CHANNELS 3 Zrotation Yrotation Xrotation
					End Site
					{
						OFFSET 0.000000 0.000000 0.000000
					}
				}
			}
		}
	}
	JOINT Spine
	{
		OFFSET -0.253288 10.896323 -2.669631
		CHANNELS 3 Zrotation Yrotation Xrotation
		JOINT Spine1
		{
			OFFSET 0.548704 13.518043 0.109247
			CHANNELS 3 Zrotation Yrotation Xrotation
			JOINT Spine2
			{
				OFFSET 0.145701 5.292222 2.542457
				CHANNELS 3 Zrotation Yrotation Xrotation
				JOINT Neck
				{
					OFFSET -0.277840 21.387037 -4.285703
					CHANNELS 3 Zrotation Yrotation Xrotation
					JOINT Head
					{
						OFFSET 0.515184 6.496960 5.134897
						CHANNELS 3 Zrotation Yrotation Xrotation
						End Site
						{
							OFFSET 0.000000 0.000000 0.000000
						}
					}
				}
				JOINT LeftShoulder
				{
					OFFSET 7.884473 12.174932 -3.408961
					CHANNELS 3 Zrotation Yrotation Xrotation
					JOINT LeftArm
					{
						OFFSET 9.097692 3.046888 -0.886815
						CHANNELS 3 Zrotation Yrotation Xrotation
						JOINT LeftForeArm
						{
							OFFSET 25.961220 -1.277207 -2.745643
							CHANNELS 3 Zrotation Yrotation Xrotation
							JOINT LeftHand
							{
								OFFSET 24.923361 0.898606 -0.117091
								CHANNELS 3 Zrotation Yrotation Xrotation
								End Site
								{
									OFFSET 0.000000 0.000000 0.000000
								}
							}
						}
					}
				}
				JOINT RightShoulder
				{
					OFFSET -8.175920 11.883285 -3.861528
					CHANNELS 3 Zrotation Yrotation Xrotation
					JOINT RightArm
					{
						OFFSET -9.601238 3.255117 -0.914307
						CHANNELS 3 Zrotation Yrotation Xrotation
						JOINT RightForeArm
						{
							OFFSET -25.374195 -1.332924 -2.140099
							CHANNELS 3 Zrotation Yrotation Xrotation
							JOINT RightHand
							{
								OFFSET -25.529810 0.777228 -0.555919
								CHANNELS 3 Zrotation Yrotation Xrotation
								End Site
								{
									OFFSET 0.000000 0.000000 0.000000
								}
							}
						}
					}
				}
			}
		}
	}
}
MOTION
Frames: 10
Frame Time: 0.033333
-0.179506 45.520988 2.821913 -29.446855 -73.001234 -61.411782 5.719613 1.922290 5.305174 0.166903 -4.588174 4.816092 -4.768818 10.235376 21.793565 -1.193552 0.215191 -0.380895 -6.354051 -4.127944 -8.068769 1.292775 -4.355731 28.562847 9.396929 -8.625101 18.173853 1.424049 -0.729835 0.459986 -1.603881 -2.097418 15.696087 1.265332 -2.460044 -4.593750 3.846053 -4.298132 6.919731 0.525249 -5.269509 0.050898 7.911811 0.683094 0.127581 -13.022706 0.817967 6.739385 -39.156243 2.966739 14.155884 -19.821760 -43.687556 38.657409 -17.463566 -16.208113 -7.123149 11.151521 1.605891 2.245687 45.436216 -4.777787 12.270242 -3.893503 40.368770 7.798740 15.743038 5.313080 0.067611 
-0.661210 45.531723 1.977181 -29.577208 -72.440071 -61.138393 5.957674 2.000647 5.034875 0.159837 -4.572579 4.844604 -4.933528 9.681711 21.617845 -1.301863 0.240486 -0.388925 -6.178832 -4.225768 -7.817902 1.472313 -4.117215 27.875778 8.906027 -8.843159 17.556862 1.300850 -0.720769 0.494651 -1.872789 -1.895296 15.719792 1.209573 -2.413956 -4.629995 3.928861 -4.280718 6.981257 0.453719 -5.412468 -0.291970 8.097282 0.849849 -0.240505 -13.129689 0.695151 6.619240 -38.356172 2.885069 14.008475 -19.902658 -44.147538 38.156012 -17.875988 -16.156174 -6.847069 11.443949 1.709835 2.270714 44.780448 -4.910912 12.071769 -4.211694 41.259623 7.238099 16.364357 5.624853 0.312479 
-1.063888 45.535126 1.525346 -31.613607 -71.731577 -58.857347 6.257112 2.107412 4.691797 0.062903 -4.439380 4.560507 -5.188969 9.188409 20.883651 -1.316583 0.265190 -0.284779 -6.133156 -4.519855 -7.508319 1.692425 -4.081338 26.857663 8.725963 -9.102163 17.144563 1.291850 -0.660649 0.541391 -2.018395 -1.749719 15.547312 1.197466 -2.350686 -4.484045 3.895060 -4.198450 6.968797 0.202419 -5.631578 -0.558741 8.268475 0.673566 -0.746618 -13.338155 0.598079 6.215203 -37.702127 2.759794 13.812405 -19.893753 -45.383410 37.837115 -17.919834 -16.486419 -7.439564 11.761810 1.825949 2.082735 44.029220 -4.811445 11.755508 -5.479326 42.920532 5.672716 16.759911 6.095665 -0.686944 
-1.791912 45.534409 0.362052 -33.082709 -70.720384 -57.205301 6.819050 2.086626 3.850428 -0.187146 -4.715021 5.151558 -5.655307 8.588763 20.434593 -1.353703 0.202731 -0.360979 -5.839553 -4.630340 -7.123258 1.975395 -3.700914 25.864014 8.151678 -9.186917 16.172402 1.241653 -0.689345 0.453461 -2.394536 -1.349207 15.307451 1.202505 -2.318112 -4.535184 3.989275 -4.193834 6.979237 0.367119 -5.568649 -0.960800 8.789442 0.752864 -0.796626 -13.485465 0.743399 6.167364 -36.688621 2.435913 13.640913 -19.640093 -46.726302 36.826124 -17.175272 -16.058860 -7.679662 12.126373 1.541071 2.022886 43.250699 -4.931568 11.689313 -6.233253 45.044774 4.311510 15.727228 6.653186 -1.546454 
-2.364713 45.522179 -0.374599 -34.502337 -69.976318 -55.400626 7.146568 2.065700 3.021345 -0.155522 -4.761781 5.463683 -5.925141 8.161173 19.733970 -1.336133 0.149052 -0.398829 -5.527014 -4.682670 -6.715011 2.085334 -3.234392 24.527628 7.924162 -9.067371 15.403704 1.124409 -0.630368 0.455213 -2.664921 -1.093405 15.021682 0.981092 -2.311462 -4.507331 3.968769 -4.087995 7.058395 0.198175 -5.700799 -1.529556 9.062220 0.662586 -1.504718 -13.475877 0.734920 5.833635 -35.661368 2.412944 13.458756 -19.927341 -48.360615 36.395087 -16.208175 -16.140261 -8.719004 12.235263 1.314657 1.897578 42.345826 -4.827551 11.436015 -7.080773 47.817884 2.925323 15.018203 7.077028 -2.528365 
-2.530936 45.504311 -0.793249 -36.345287 -68.901367 -53.528811 7.235348 2.304652 2.450019 -0.413831 -5.046439 5.799778 -6.437834 7.846992 19.619934 -1.390289 0.060373 -0.214111 -5.570812 -4.830522 -6.050354 2.154472 -2.604927 23.289693 7.775966 -9.433871 15.686201 1.036245 -0.458061 0.237754 -2.742890 -0.716622 15.101041 0.904575 -2.266930 -4.891429 3.946652 -3.878598 7.325996 -0.216824 -6.161715 -1.591411 9.389701 0.574294 -2.002067 -13.658405 0.682118 5.490793 -34.370614 2.368197 13.543888 -20.827346 -51.075459 36.743617 -14.784036 -16.276210 -10.015987 12.397441 1.184204 1.646601 41.242610 -5.147581 10.568603 -10.385118 51.116676 -1.098801 13.467058 7.466866 -5.157926 
-2.729705 45.486473 -1.627691 -37.257213 -68.140137 -52.808086 7.382609 2.216257 1.952146 -0.285440 -5.125697 6.481013 -6.727529 7.619894 20.294300 -1.400901 -0.097105 -0.263632 -5.340532 -4.948038 -5.304802 2.252702 -2.340234 22.117280 7.624252 -9.908057 15.896336 0.827309 -0.264798 0.111018 -3.078068 -0.387949 15.269325 0.626836 -2.079285 -5.434998 4.025411 -3.728732 7.929941 -0.456520 -6.025536 -1.764909 9.407896 0.582843 -2.234308 -13.196262 0.553889 5.026067 -33.324896 2.316348 13.202181 -21.925292 -54.258710 37.091715 -12.966906 -16.363896 -10.747015 12.319423 1.276659 1.358669 40.583131 -5.166257 9.908214 -14.498611 54.330097 -5.644589 12.237796 8.114156 -6.301381 
-2.798107 45.465019 -2.271468 -38.557615 -67.367645 -51.604519 7.541808 2.187385 1.282722 -0.224119 -5.186932 7.157939 -7.152868 7.594352 21.090743 -1.462054 -0.110226 -0.235170 -5.112570 -4.955818 -4.847867 2.260631 -2.006290 21.082353 7.698280 -10.030071 16.803555 0.771168 -0.256443 -0.095245 -3.348282 -0.097165 14.886439 0.582140 -2.067213 -5.411455 3.926848 -3.578351 7.926806 -0.788622 -6.202173 -1.795710 9.571039 0.261342 -2.409607 -13.169802 0.611306 4.692821 -31.872535 2.101582 13.318059 -21.944740 -57.950736 36.904366 -9.975459 -16.598361 -11.992531 12.276171 1.042663 0.941443 39.591331 -5.127521 8.985452 -21.360208 58.114145 -13.006819 9.037024 8.766371 -8.606664 
-2.986341 45.445206 -2.932922 -38.714147 -66.899402 -51.810940 7.571232 1.855046 1.061916 -0.108988 -5.291131 7.987249 -7.406359 8.088291 21.360479 -1.517584 -0.068433 -0.228258 -4.726747 -4.855108 -4.109130 1.987411 -1.721332 20.232669 7.733059 -9.834698 16.739545 0.822006 -0.273476 -0.166072 -3.447073 0.137035 14.853084 0.425674 -1.984487 -5.075205 3.846851 -3.319543 7.783923 -1.267618 -6.268625 -1.089814 9.171706 0.121420 -2.275827 -12.682993 0.654889 4.333565 -31.122443 1.757058 12.629797 -21.607577 -61.213079 36.497515 -8.748312 -16.484419 -11.926372 11.455411 1.066348 0.509345 39.547299 -4.377551 8.057227 -28.185385 60.794134 -19.567353 7.039574 8.636775 -9.127943 
-3.246905 45.427437 -3.240205 -40.519254 -66.019079 -50.186830 7.810060 1.648646 0.082549 -0.280820 -4.904305 9.651733 -7.521298 7.721515 20.814352 -1.560768 -0.102694 -0.041353 -4.338316 -4.912852 -3.199640 1.874920 -1.281254 18.944629 7.489704 -9.475423 16.476390 0.940843 -0.226672 -0.168571 -3.594382 0.400846 14.433625 0.277254 -2.035835 -5.234213 3.809293 -3.173571 7.876126 -1.579701 -6.320021 -0.333174 9.201039 -0.286406 -2.495059 -12.392194 0.578394 4.034157 -29.999188 1.394634 11.942239 -22.011471 -64.442980 36.605644 -6.782656 -16.141937 -11.623371 10.854350 1.351163 0.065308 38.631326 -3.287220 6.764016 -37.233623 63.616387 -28.742965 3.453088 8.803502 -9.421564 
